<svg xmlns="http://www.w3.org/2000/svg" xmlns:v="https://svgstorm.com"
viewBox = "0 0 501 512"
width="501"
height="512">
<g fill="None" fill-opacity="0.0" stroke="#000002" stroke-opacity="0.00" stroke-width="0.3"><path d="
M 0.00 225.00 
C 10.57 218.03 20.49 212.11 32.23 207.23 C 43.97 202.35 58.95 197.34 71.00 195.00
C 69.85 193.89 68.95 187.81 68.00 186.00
C 57.02 164.98 51.35 138.19 53.00 114.00
C 53.58 105.49 53.35 88.95 56.33 81.33 C 59.31 73.71 81.12 77.00 88.00 77.00
C 120.20 77.00 149.83 87.29 175.00 106.00
C 185.97 63.90 213.27 26.50 248.00 0.00
L 0.00 0.00
L 0.00 225.00 Z"/>
</g>
<g fill="None" fill-opacity="0.0" stroke="#EA8285" stroke-opacity="0.98" stroke-width="0.3"><path d="
M 175.00 106.00 
C 184.06 112.73 194.04 127.79 205.67 120.67 C 217.30 113.55 236.06 114.82 250.00 115.00 C 263.94 115.18 283.11 111.94 295.08 119.92 C 307.05 127.90 316.77 113.74 326.00 106.00
C 327.06 99.52 320.32 90.60 319.22 83.78 C 318.12 76.95 312.37 69.86 309.69 63.31 C 307.02 56.75 301.52 51.18 298.08 44.92 C 294.63 38.67 288.55 34.52 284.25 28.75 C 279.95 22.99 274.80 18.36 269.25 13.75 C 263.70 9.14 258.58 4.15 253.00 0.00
L 248.00 0.00
C 213.27 26.50 185.97 63.90 175.00 106.00 Z"/>
</g>
<g fill="None" fill-opacity="0.0" stroke="#000002" stroke-opacity="0.00" stroke-width="0.3"><path d="
M 326.00 106.00 
C 349.26 86.51 383.34 77.00 414.00 77.00
C 421.45 77.00 444.32 73.59 445.93 83.07 C 447.53 92.56 448.61 108.91 449.00 119.00
C 449.67 136.46 445.20 153.59 440.00 169.00
C 438.68 172.90 438.69 179.45 435.69 182.69 C 432.70 185.94 433.42 192.42 430.00 195.00
C 455.14 199.92 479.90 209.98 501.00 225.00
L 501.00 0.00
L 253.00 0.00
C 258.58 4.15 263.70 9.14 269.25 13.75 C 274.80 18.36 279.95 22.99 284.25 28.75 C 288.55 34.52 294.63 38.67 298.08 44.92 C 301.52 51.18 307.02 56.75 309.69 63.31 C 312.37 69.86 318.12 76.95 319.22 83.78 C 320.32 90.60 327.06 99.52 326.00 106.00 Z"/>
</g>
<g fill="None" fill-opacity="0.0" stroke="#EA8285" stroke-opacity="0.97" stroke-width="0.3"><path d="
M 53.00 114.00 
C 60.43 119.69 69.06 111.42 78.02 111.02 C 86.99 110.63 96.55 103.04 106.00 107.00
C 102.56 95.90 93.40 87.17 88.00 77.00
C 81.12 77.00 59.31 73.71 56.33 81.33 C 53.35 88.95 53.58 105.49 53.00 114.00 Z"/>
</g>
<g fill="None" fill-opacity="0.0" stroke="#C0576C" stroke-opacity="0.99" stroke-width="0.3"><path d="
M 53.00 114.00 
C 51.35 138.19 57.02 164.98 68.00 186.00
C 65.65 179.13 58.90 164.81 70.22 164.22 C 81.55 163.64 90.58 161.41 101.07 160.07 C 111.57 158.73 121.61 156.94 132.00 157.00 C 142.39 157.06 146.30 148.55 153.23 143.23 C 160.17 137.91 165.97 131.65 174.00 129.00
C 173.05 138.45 174.83 145.71 174.98 155.02 C 175.12 164.34 178.65 169.14 186.08 165.08 C 193.50 161.01 201.23 160.64 208.01 159.01 C 214.78 157.38 225.54 153.20 228.75 161.25 C 231.97 169.29 239.27 171.23 248.00 168.00
C 250.06 176.67 248.06 187.12 249.00 196.00 C 249.94 204.88 245.93 217.45 252.00 223.00
C 252.58 206.40 253.44 189.86 253.00 173.00
C 257.16 173.46 260.47 176.84 265.00 176.00
C 265.57 172.77 268.85 170.48 269.00 167.00
C 287.25 163.84 304.12 173.15 321.00 178.00
C 324.38 165.32 329.15 152.91 328.00 139.00
C 338.49 143.59 342.19 160.40 355.67 158.67 C 369.15 156.94 386.54 156.98 400.00 160.00 C 413.46 163.02 429.71 161.57 440.00 169.00
C 445.20 153.59 449.67 136.46 449.00 119.00
C 446.45 125.30 432.72 122.27 426.98 123.98 C 421.23 125.69 410.91 126.25 404.78 128.78 C 398.64 131.31 390.97 132.73 384.93 135.93 C 378.88 139.12 372.50 142.68 366.00 145.00
C 386.07 127.20 413.92 121.21 440.00 120.00
C 426.05 114.72 409.03 106.92 394.00 109.00
C 398.60 97.58 407.30 87.57 414.00 77.00
C 383.34 77.00 349.26 86.51 326.00 106.00
C 316.77 113.74 307.05 127.90 295.08 119.92 C 283.11 111.94 263.94 115.18 250.00 115.00 C 236.06 114.82 217.30 113.55 205.67 120.67 C 194.04 127.79 184.06 112.73 175.00 106.00
C 149.83 87.29 120.20 77.00 88.00 77.00
C 93.40 87.17 102.56 95.90 106.00 107.00
C 96.55 103.04 86.99 110.63 78.02 111.02 C 69.06 111.42 60.43 119.69 53.00 114.00
M 136.00 145.00 
C 111.45 131.94 84.62 123.29 57.00 121.00
C 84.85 119.24 114.59 126.77 136.00 145.00 Z"/>
</g>
<g fill="None" fill-opacity="0.0" stroke="#EA8285" stroke-opacity="0.98" stroke-width="0.3"><path d="
M 449.00 119.00 
C 448.61 108.91 447.53 92.56 445.93 83.07 C 444.32 73.59 421.45 77.00 414.00 77.00
C 407.30 87.57 398.60 97.58 394.00 109.00
C 409.03 106.92 426.05 114.72 440.00 120.00
C 413.92 121.21 386.07 127.20 366.00 145.00
C 372.50 142.68 378.88 139.12 384.93 135.93 C 390.97 132.73 398.64 131.31 404.78 128.78 C 410.91 126.25 421.23 125.69 426.98 123.98 C 432.72 122.27 446.45 125.30 449.00 119.00 Z"/>
</g>
<g fill="None" fill-opacity="0.0" stroke="#EA8285" stroke-opacity="1.00" stroke-width="0.3"><path d="
M 136.00 145.00 
C 114.59 126.77 84.85 119.24 57.00 121.00
C 84.62 123.29 111.45 131.94 136.00 145.00 Z"/>
</g>
<g fill="None" fill-opacity="0.0" stroke="#712144" stroke-opacity="1.00" stroke-width="0.3"><path d="
M 68.00 186.00 
C 68.95 187.81 69.85 193.89 71.00 195.00
C 85.57 192.17 106.50 195.82 121.22 196.78 C 135.94 197.74 150.18 204.28 163.08 209.92 C 175.97 215.57 185.25 222.81 196.00 232.00
C 207.63 241.94 218.04 254.09 225.00 267.00
C 231.21 278.51 236.67 289.51 241.00 302.00
C 244.13 311.04 244.63 323.02 252.00 330.00
C 257.36 320.02 257.21 307.82 262.00 298.00
C 264.40 291.48 267.22 285.08 270.00 279.00
C 276.94 263.82 286.97 251.03 299.00 239.00
C 314.92 223.08 330.41 211.01 352.07 204.07 C 373.73 197.14 406.70 190.44 430.00 195.00
C 433.42 192.42 432.70 185.94 435.69 182.69 C 438.69 179.45 438.68 172.90 440.00 169.00
C 429.71 161.57 413.46 163.02 400.00 160.00 C 386.54 156.98 369.15 156.94 355.67 158.67 C 342.19 160.40 338.49 143.59 328.00 139.00
C 329.15 152.91 324.38 165.32 321.00 178.00
C 304.12 173.15 287.25 163.84 269.00 167.00
C 268.85 170.48 265.57 172.77 265.00 176.00
C 260.47 176.84 257.16 173.46 253.00 173.00
C 253.44 189.86 252.58 206.40 252.00 223.00
C 245.93 217.45 249.94 204.88 249.00 196.00 C 248.06 187.12 250.06 176.67 248.00 168.00
C 239.27 171.23 231.97 169.29 228.75 161.25 C 225.54 153.20 214.78 157.38 208.01 159.01 C 201.23 160.64 193.50 161.01 186.08 165.08 C 178.65 169.14 175.12 164.34 174.98 155.02 C 174.83 145.71 173.05 138.45 174.00 129.00
C 165.97 131.65 160.17 137.91 153.23 143.23 C 146.30 148.55 142.39 157.06 132.00 157.00 C 121.61 156.94 111.57 158.73 101.07 160.07 C 90.58 161.41 81.55 163.64 70.22 164.22 C 58.90 164.81 65.65 179.13 68.00 186.00 Z"/>
</g>
<g fill="None" fill-opacity="0.0" stroke="#5DB7C9" stroke-opacity="0.99" stroke-width="0.3"><path d="
M 0.00 225.00 
L 0.00 231.00
C 9.17 264.80 29.60 294.88 56.00 317.00
C 56.05 311.84 66.89 308.08 70.75 304.75 C 74.60 301.41 83.27 298.58 88.69 295.69 C 94.12 292.81 102.51 290.86 109.01 289.01 C 115.50 287.16 124.85 285.39 132.00 285.00
C 139.16 283.84 147.91 283.85 155.00 285.00
C 180.89 286.40 200.91 304.07 221.00 316.00
C 214.66 310.59 208.70 304.98 202.00 300.00
C 172.08 277.75 138.68 261.25 103.00 252.00
C 89.71 248.55 75.46 246.29 62.00 245.00
C 74.16 243.71 86.42 242.69 99.00 243.00
C 103.72 232.09 118.94 234.71 129.00 232.00
C 131.03 237.69 134.68 242.86 138.00 248.00
C 140.56 253.23 142.94 256.70 147.00 261.00
C 148.91 262.09 151.75 262.74 154.00 263.00
C 149.06 255.76 144.92 248.22 140.00 241.00
C 161.17 237.53 184.74 238.04 205.00 242.00
C 202.62 238.20 198.32 235.76 196.00 232.00
C 185.25 222.81 175.97 215.57 163.08 209.92 C 150.18 204.28 135.94 197.74 121.22 196.78 C 106.50 195.82 85.57 192.17 71.00 195.00
C 58.95 197.34 43.97 202.35 32.23 207.23 C 20.49 212.11 10.57 218.03 0.00 225.00 Z"/>
</g>
<g fill="None" fill-opacity="0.0" stroke="#5DB7C9" stroke-opacity="0.99" stroke-width="0.3"><path d="
M 299.00 239.00 
C 306.39 236.79 315.24 238.96 323.00 238.00 C 330.76 237.04 340.27 238.74 348.00 238.00 C 355.73 237.26 363.19 240.69 358.08 247.08 C 352.97 253.47 352.14 256.44 349.00 263.00
C 360.79 260.55 363.72 247.14 369.00 238.00
C 391.27 241.27 411.00 248.04 434.00 244.00
C 411.32 248.40 388.15 254.43 366.00 262.00
C 345.26 271.27 323.57 282.19 305.00 296.00
C 299.23 300.29 293.57 304.60 288.00 309.00
C 287.04 310.11 285.93 311.46 286.00 313.00
C 305.07 301.56 322.47 285.15 346.00 285.00
C 353.44 283.79 362.63 283.80 370.00 285.00
C 377.23 285.39 386.49 287.06 393.02 288.98 C 399.56 290.89 407.71 292.56 413.08 295.92 C 418.44 299.29 427.04 301.07 430.75 305.25 C 434.46 309.44 446.22 311.65 446.00 317.00
C 472.51 296.28 489.99 266.37 501.00 235.00
L 501.00 225.00
C 479.90 209.98 455.14 199.92 430.00 195.00
C 406.70 190.44 373.73 197.14 352.07 204.07 C 330.41 211.01 314.92 223.08 299.00 239.00
M 415.00 243.00 
C 412.24 245.16 407.51 243.45 404.00 244.00
C 406.76 241.84 411.49 243.55 415.00 243.00 Z"/>
</g>
<g fill="None" fill-opacity="0.0" stroke="#000002" stroke-opacity="0.00" stroke-width="0.3"><path d="
M 0.00 512.00 
L 60.00 512.00
C 51.12 507.65 43.83 503.38 39.70 493.30 C 35.56 483.23 35.04 469.94 36.00 458.00 C 36.96 446.06 34.22 429.96 36.00 418.00 C 37.78 406.04 31.95 390.40 36.33 379.33 C 40.71 368.26 60.41 375.58 71.00 374.00 C 81.59 372.42 98.19 374.71 110.00 374.00 C 121.81 373.29 136.76 374.31 149.00 374.00 C 161.24 373.70 176.96 374.13 189.00 374.00 C 201.04 373.87 219.06 370.08 215.01 385.01 C 210.95 399.94 234.11 398.95 237.00 391.00
C 235.89 389.78 236.81 380.81 237.00 379.00
C 235.60 371.38 241.86 367.19 250.00 367.00 C 258.14 366.81 262.60 370.18 264.00 379.00
C 264.58 382.67 263.88 388.42 265.00 392.00
C 270.26 400.68 291.18 396.98 287.00 383.00 C 282.82 369.02 304.10 374.53 315.00 374.00 C 325.90 373.47 342.27 374.03 354.00 374.00 C 365.73 373.97 381.30 373.56 393.00 374.00 C 404.70 374.44 422.27 372.83 433.00 374.00 C 443.73 375.17 462.15 368.65 465.77 380.23 C 469.39 391.81 464.41 406.92 466.00 419.00 C 467.59 431.08 465.05 446.02 466.00 458.00 C 466.95 469.98 466.29 482.96 462.08 493.08 C 457.87 503.19 450.33 508.42 441.00 512.00
L 501.00 512.00
L 501.00 235.00
C 489.99 266.37 472.51 296.28 446.00 317.00
C 425.81 332.78 400.81 349.22 374.00 351.00
C 370.17 351.25 365.58 351.91 361.00 352.00
C 354.52 352.78 345.14 354.35 338.00 353.00
C 326.15 350.75 312.52 350.31 299.93 347.07 C 287.34 343.84 274.11 342.00 260.00 342.00
C 253.00 342.00 246.00 342.00 239.00 342.00
C 237.34 342.00 235.66 341.92 234.00 342.00
C 230.40 342.18 226.70 342.54 223.00 343.00
C 221.09 343.24 218.99 343.63 217.00 344.00
C 214.47 344.46 210.91 345.51 208.00 346.00
C 193.49 348.45 178.79 351.61 164.00 353.00
C 157.54 353.61 148.36 354.21 142.00 353.00
C 139.05 352.44 135.15 351.33 131.00 351.00
C 102.72 348.74 76.89 334.51 56.00 317.00
C 29.60 294.88 9.17 264.80 0.00 231.00
L 0.00 512.00 Z"/>
</g>
<g fill="None" fill-opacity="0.0" stroke="#2F718C" stroke-opacity="1.00" stroke-width="0.3"><path d="
M 103.00 252.00 
C 114.21 252.49 126.48 248.22 138.00 248.00
C 134.68 242.86 131.03 237.69 129.00 232.00
C 118.94 234.71 103.72 232.09 99.00 243.00
C 86.42 242.69 74.16 243.71 62.00 245.00
C 75.46 246.29 89.71 248.55 103.00 252.00 Z"/>
</g>
<g fill="None" fill-opacity="0.0" stroke="#2F718C" stroke-opacity="1.00" stroke-width="0.3"><path d="
M 147.00 261.00 
C 151.26 265.52 152.95 264.27 159.00 263.00 C 165.05 261.73 170.57 264.02 176.00 264.00 C 181.43 263.97 187.80 265.10 192.67 265.33 C 197.54 265.56 205.78 267.44 210.00 266.00 C 214.22 264.56 223.64 269.58 225.00 267.00
C 218.04 254.09 207.63 241.94 196.00 232.00
C 198.32 235.76 202.62 238.20 205.00 242.00
C 184.74 238.04 161.17 237.53 140.00 241.00
C 144.92 248.22 149.06 255.76 154.00 263.00
C 151.75 262.74 148.91 262.09 147.00 261.00 Z"/>
</g>
<g fill="None" fill-opacity="0.0" stroke="#2F718C" stroke-opacity="1.00" stroke-width="0.3"><path d="
M 299.00 239.00 
C 286.97 251.03 276.94 263.82 270.00 279.00
C 272.74 283.47 285.07 277.90 290.07 278.07 C 295.08 278.25 305.06 276.87 310.67 275.67 C 316.28 274.47 324.01 274.12 329.68 271.68 C 335.34 269.24 343.42 271.66 348.69 267.69 C 353.97 263.73 359.57 262.96 366.00 262.00
C 388.15 254.43 411.32 248.40 434.00 244.00
C 411.00 248.04 391.27 241.27 369.00 238.00
C 363.72 247.14 360.79 260.55 349.00 263.00
C 352.14 256.44 352.97 253.47 358.08 247.08 C 363.19 240.69 355.73 237.26 348.00 238.00 C 340.27 238.74 330.76 237.04 323.00 238.00 C 315.24 238.96 306.39 236.79 299.00 239.00 Z"/>
</g>
<g fill="None" fill-opacity="0.0" stroke="#2F718C" stroke-opacity="1.00" stroke-width="0.3"><path d="
M 415.00 243.00 
C 411.49 243.55 406.76 241.84 404.00 244.00
C 407.51 243.45 412.24 245.16 415.00 243.00 Z"/>
</g>
<g fill="None" fill-opacity="0.0" stroke="#204D67" stroke-opacity="1.00" stroke-width="0.3"><path d="
M 103.00 252.00 
C 138.68 261.25 172.08 277.75 202.00 300.00
C 205.53 301.07 216.15 302.69 221.00 302.00 C 225.85 301.31 239.63 305.89 241.00 302.00
C 236.67 289.51 231.21 278.51 225.00 267.00
C 223.64 269.58 214.22 264.56 210.00 266.00 C 205.78 267.44 197.54 265.56 192.67 265.33 C 187.80 265.10 181.43 263.97 176.00 264.00 C 170.57 264.02 165.05 261.73 159.00 263.00 C 152.95 264.27 151.26 265.52 147.00 261.00
C 142.94 256.70 140.56 253.23 138.00 248.00
C 126.48 248.22 114.21 252.49 103.00 252.00 Z"/>
</g>
<g fill="None" fill-opacity="0.0" stroke="#204D67" stroke-opacity="1.00" stroke-width="0.3"><path d="
M 270.00 279.00 
C 267.22 285.08 264.40 291.48 262.00 298.00
C 263.37 301.67 277.86 299.40 283.00 298.00 C 288.14 296.60 300.21 296.72 305.00 296.00
C 323.57 282.19 345.26 271.27 366.00 262.00
C 359.57 262.96 353.97 263.73 348.69 267.69 C 343.42 271.66 335.34 269.24 329.68 271.68 C 324.01 274.12 316.28 274.47 310.67 275.67 C 305.06 276.87 295.08 278.25 290.07 278.07 C 285.07 277.90 272.74 283.47 270.00 279.00 Z"/>
</g>
<g fill="None" fill-opacity="0.0" stroke="#2F718C" stroke-opacity="1.00" stroke-width="0.3"><path d="
M 132.00 285.00 
C 139.51 284.59 147.49 284.59 155.00 285.00
C 147.91 283.85 139.16 283.84 132.00 285.00 Z"/>
</g>
<g fill="None" fill-opacity="0.0" stroke="#2F718C" stroke-opacity="1.00" stroke-width="0.3"><path d="
M 346.00 285.00 
C 353.84 284.57 362.16 284.57 370.00 285.00
C 362.63 283.80 353.44 283.79 346.00 285.00 Z"/>
</g>
<g fill="None" fill-opacity="0.0" stroke="#204D67" stroke-opacity="0.99" stroke-width="0.3"><path d="
M 56.00 317.00 
C 76.89 334.51 102.72 348.74 131.00 351.00
C 129.55 350.70 126.27 349.94 125.00 349.00
C 140.98 341.97 159.22 338.54 177.00 335.00 C 194.78 331.46 213.52 321.80 232.00 327.00
C 229.32 322.31 224.36 319.23 221.00 316.00
C 200.91 304.07 180.89 286.40 155.00 285.00
C 147.49 284.59 139.51 284.59 132.00 285.00
C 124.85 285.39 115.50 287.16 109.01 289.01 C 102.51 290.86 94.12 292.81 88.69 295.69 C 83.27 298.58 74.60 301.41 70.75 304.75 C 66.89 308.08 56.05 311.84 56.00 317.00 Z"/>
</g>
<g fill="None" fill-opacity="0.0" stroke="#204D67" stroke-opacity="0.99" stroke-width="0.3"><path d="
M 288.00 309.00 
C 284.03 312.14 279.56 316.38 277.00 320.00
C 296.95 313.40 319.54 321.50 340.07 325.93 C 360.61 330.36 382.33 333.55 402.00 341.00
C 394.48 347.25 381.38 346.29 374.00 351.00
C 400.81 349.22 425.81 332.78 446.00 317.00
C 446.22 311.65 434.46 309.44 430.75 305.25 C 427.04 301.07 418.44 299.29 413.08 295.92 C 407.71 292.56 399.56 290.89 393.02 288.98 C 386.49 287.06 377.23 285.39 370.00 285.00
C 362.16 284.57 353.84 284.57 346.00 285.00
C 322.47 285.15 305.07 301.56 286.00 313.00
C 285.93 311.46 287.04 310.11 288.00 309.00 Z"/>
</g>
<g fill="None" fill-opacity="0.0" stroke="#0E2941" stroke-opacity="0.99" stroke-width="0.3"><path d="
M 262.00 298.00 
C 257.21 307.82 257.36 320.02 252.00 330.00
C 244.63 323.02 244.13 311.04 241.00 302.00
C 239.63 305.89 225.85 301.31 221.00 302.00 C 216.15 302.69 205.53 301.07 202.00 300.00
C 208.70 304.98 214.66 310.59 221.00 316.00
C 224.36 319.23 229.32 322.31 232.00 327.00
C 213.52 321.80 194.78 331.46 177.00 335.00 C 159.22 338.54 140.98 341.97 125.00 349.00
C 126.27 349.94 129.55 350.70 131.00 351.00
C 135.15 351.33 139.05 352.44 142.00 353.00
C 147.67 353.45 158.24 352.98 164.00 353.00
C 178.79 351.61 193.49 348.45 208.00 346.00
C 211.36 345.02 213.53 344.19 217.00 344.00
C 218.99 343.63 221.09 343.24 223.00 343.00
C 226.92 342.04 230.28 341.67 234.00 342.00
C 235.66 341.92 237.34 342.00 239.00 342.00
C 242.02 341.36 245.02 339.74 249.02 339.02 C 253.02 338.31 257.14 341.42 260.00 342.00
C 274.11 342.00 287.34 343.84 299.93 347.07 C 312.52 350.31 326.15 350.75 338.00 353.00
C 344.16 353.58 353.97 352.14 361.00 352.00
C 365.58 351.91 370.17 351.25 374.00 351.00
C 381.38 346.29 394.48 347.25 402.00 341.00
C 382.33 333.55 360.61 330.36 340.07 325.93 C 319.54 321.50 296.95 313.40 277.00 320.00
C 279.56 316.38 284.03 312.14 288.00 309.00
C 293.57 304.60 299.23 300.29 305.00 296.00
C 300.21 296.72 288.14 296.60 283.00 298.00 C 277.86 299.40 263.37 301.67 262.00 298.00 Z"/>
</g>
<g fill="None" fill-opacity="0.0" stroke="#2F718C" stroke-opacity="0.45" stroke-width="0.3"><path d="
M 239.00 342.00 
C 246.00 342.00 253.00 342.00 260.00 342.00
C 257.14 341.42 253.02 338.31 249.02 339.02 C 245.02 339.74 242.02 341.36 239.00 342.00 Z"/>
</g>
<g fill="None" fill-opacity="0.0" stroke="#204D67" stroke-opacity="0.56" stroke-width="0.3"><path d="
M 223.00 343.00 
C 226.70 342.54 230.40 342.18 234.00 342.00
C 230.28 341.67 226.92 342.04 223.00 343.00 Z"/>
</g>
<g fill="None" fill-opacity="0.0" stroke="#204D67" stroke-opacity="0.47" stroke-width="0.3"><path d="
M 208.00 346.00 
C 210.91 345.51 214.47 344.46 217.00 344.00
C 213.53 344.19 211.36 345.02 208.00 346.00 Z"/>
</g>
<g fill="None" fill-opacity="0.0" stroke="#204D67" stroke-opacity="0.01" stroke-width="0.3"><path d="
M 142.00 353.00 
C 148.36 354.21 157.54 353.61 164.00 353.00
C 158.24 352.98 147.67 353.45 142.00 353.00 Z"/>
</g>
<g fill="None" fill-opacity="0.0" stroke="#204D67" stroke-opacity="0.01" stroke-width="0.3"><path d="
M 338.00 353.00 
C 345.14 354.35 354.52 352.78 361.00 352.00
C 353.97 352.14 344.16 353.58 338.00 353.00 Z"/>
</g>
<g fill="None" fill-opacity="0.0" stroke="#0E2941" stroke-opacity="0.99" stroke-width="0.3"><path d="
M 237.00 379.00 
C 237.04 379.22 237.78 379.70 238.00 380.00
C 239.87 382.53 239.02 386.50 238.00 389.00
C 237.83 390.37 237.32 390.12 237.00 391.00
C 234.11 398.95 210.95 399.94 215.01 385.01 C 219.06 370.08 201.04 373.87 189.00 374.00 C 176.96 374.13 161.24 373.70 149.00 374.00 C 136.76 374.31 121.81 373.29 110.00 374.00 C 98.19 374.71 81.59 372.42 71.00 374.00 C 60.41 375.58 40.71 368.26 36.33 379.33 C 31.95 390.40 37.78 406.04 36.00 418.00 C 34.22 429.96 36.96 446.06 36.00 458.00 C 35.04 469.94 35.56 483.23 39.70 493.30 C 43.83 503.38 51.12 507.65 60.00 512.00
L 441.00 512.00
C 450.33 508.42 457.87 503.19 462.08 493.08 C 466.29 482.96 466.95 469.98 466.00 458.00 C 465.05 446.02 467.59 431.08 466.00 419.00 C 464.41 406.92 469.39 391.81 465.77 380.23 C 462.15 368.65 443.73 375.17 433.00 374.00 C 422.27 372.83 404.70 374.44 393.00 374.00 C 381.30 373.56 365.73 373.97 354.00 374.00 C 342.27 374.03 325.90 373.47 315.00 374.00 C 304.10 374.53 282.82 369.02 287.00 383.00 C 291.18 396.98 270.26 400.68 265.00 392.00
C 262.36 387.65 263.82 383.33 264.00 379.00
C 262.60 370.18 258.14 366.81 250.00 367.00 C 241.86 367.19 235.60 371.38 237.00 379.00
M 280.00 410.00 
C 281.53 413.02 281.00 417.29 281.00 421.00
C 281.00 434.39 291.28 448.35 285.23 461.23 C 279.18 474.11 272.12 483.18 257.00 484.00
C 251.69 485.44 250.22 485.29 245.00 484.00
C 236.02 483.66 227.41 479.71 221.75 472.25 C 216.10 464.78 212.72 454.80 214.98 444.98 C 217.23 435.15 222.78 426.65 221.00 415.00 C 219.22 403.35 239.87 404.68 248.00 406.00 C 256.13 407.32 275.62 401.34 280.00 410.00 Z"/>
</g>
<g fill="None" fill-opacity="0.0" stroke="#2F718C" stroke-opacity="0.78" stroke-width="0.3"><path d="
M 237.00 391.00 
C 237.32 390.12 237.83 390.37 238.00 389.00
C 238.33 386.33 238.38 382.66 238.00 380.00
C 237.78 379.70 237.04 379.22 237.00 379.00
C 236.81 380.81 235.89 389.78 237.00 391.00 Z"/>
</g>
<g fill="None" fill-opacity="0.0" stroke="#2F718C" stroke-opacity="0.75" stroke-width="0.3"><path d="
M 265.00 392.00 
C 263.88 388.42 264.58 382.67 264.00 379.00
C 263.82 383.33 262.36 387.65 265.00 392.00 Z"/>
</g>
<g fill="None" fill-opacity="0.0" stroke="#204D67" stroke-opacity="1.00" stroke-width="0.3"><path d="
M 238.00 389.00 
C 239.02 386.50 239.87 382.53 238.00 380.00
C 238.38 382.66 238.33 386.33 238.00 389.00 Z"/>
</g>
<g fill="None" fill-opacity="0.0" stroke="#000002" stroke-opacity="0.00" stroke-width="0.3"><path d="
M 245.00 484.00 
C 248.94 484.15 253.06 484.21 257.00 484.00
C 272.12 483.18 279.18 474.11 285.23 461.23 C 291.28 448.35 281.00 434.39 281.00 421.00
C 280.78 418.73 280.84 412.57 280.00 410.00
C 275.62 401.34 256.13 407.32 248.00 406.00 C 239.87 404.68 219.22 403.35 221.00 415.00 C 222.78 426.65 217.23 435.15 214.98 444.98 C 212.72 454.80 216.10 464.78 221.75 472.25 C 227.41 479.71 236.02 483.66 245.00 484.00
M 258.00 463.00 
C 254.45 464.76 243.54 463.25 242.00 461.00
C 239.04 456.69 239.46 448.69 239.00 443.00 C 238.54 437.31 249.08 434.60 253.00 435.00 C 256.92 435.40 265.38 441.41 263.00 446.00 C 260.62 450.59 262.47 460.79 258.00 463.00 Z"/>
</g>
<g fill="None" fill-opacity="0.0" stroke="#204D67" stroke-opacity="0.01" stroke-width="0.3"><path d="
M 281.00 421.00 
C 281.00 417.29 281.53 413.02 280.00 410.00
C 280.84 412.57 280.78 418.73 281.00 421.00 Z"/>
</g>
<g fill="None" fill-opacity="0.0" stroke="#0E2941" stroke-opacity="0.93" stroke-width="0.3"><path d="
M 242.00 461.00 
C 246.19 459.76 254.76 464.35 258.00 463.00
C 262.47 460.79 260.62 450.59 263.00 446.00 C 265.38 441.41 256.92 435.40 253.00 435.00 C 249.08 434.60 238.54 437.31 239.00 443.00 C 239.46 448.69 239.04 456.69 242.00 461.00 Z"/>
</g>
<g fill="None" fill-opacity="0.0" stroke="#204D67" stroke-opacity="0.49" stroke-width="0.3"><path d="
M 258.00 463.00 
C 254.76 464.35 246.19 459.76 242.00 461.00
C 243.54 463.25 254.45 464.76 258.00 463.00 Z"/>
</g>
<g fill="None" fill-opacity="0.0" stroke="#2F718C" stroke-opacity="0.45" stroke-width="0.3"><path d="
M 257.00 484.00 
C 253.06 484.21 248.94 484.15 245.00 484.00
C 250.22 485.29 251.69 485.44 257.00 484.00 Z"/>
</g>
<g fill="#000002" fill-opacity="0.00" stroke="None">
<path d="
M 0.00 225.00 
C 10.57 218.03 20.49 212.11 32.23 207.23 C 43.97 202.35 58.95 197.34 71.00 195.00
C 69.85 193.89 68.95 187.81 68.00 186.00
C 57.02 164.98 51.35 138.19 53.00 114.00
C 53.58 105.49 53.35 88.95 56.33 81.33 C 59.31 73.71 81.12 77.00 88.00 77.00
C 120.20 77.00 149.83 87.29 175.00 106.00
C 185.97 63.90 213.27 26.50 248.00 0.00
L 0.00 0.00
L 0.00 225.00 Z"/>
</g>
<g fill="#EA8285" fill-opacity="0.98" stroke="None">
<path d="
M 175.00 106.00 
C 184.06 112.73 194.04 127.79 205.67 120.67 C 217.30 113.55 236.06 114.82 250.00 115.00 C 263.94 115.18 283.11 111.94 295.08 119.92 C 307.05 127.90 316.77 113.74 326.00 106.00
C 327.06 99.52 320.32 90.60 319.22 83.78 C 318.12 76.95 312.37 69.86 309.69 63.31 C 307.02 56.75 301.52 51.18 298.08 44.92 C 294.63 38.67 288.55 34.52 284.25 28.75 C 279.95 22.99 274.80 18.36 269.25 13.75 C 263.70 9.14 258.58 4.15 253.00 0.00
L 248.00 0.00
C 213.27 26.50 185.97 63.90 175.00 106.00 Z"/>
</g>
<g fill="#000002" fill-opacity="0.00" stroke="None">
<path d="
M 326.00 106.00 
C 349.26 86.51 383.34 77.00 414.00 77.00
C 421.45 77.00 444.32 73.59 445.93 83.07 C 447.53 92.56 448.61 108.91 449.00 119.00
C 449.67 136.46 445.20 153.59 440.00 169.00
C 438.68 172.90 438.69 179.45 435.69 182.69 C 432.70 185.94 433.42 192.42 430.00 195.00
C 455.14 199.92 479.90 209.98 501.00 225.00
L 501.00 0.00
L 253.00 0.00
C 258.58 4.15 263.70 9.14 269.25 13.75 C 274.80 18.36 279.95 22.99 284.25 28.75 C 288.55 34.52 294.63 38.67 298.08 44.92 C 301.52 51.18 307.02 56.75 309.69 63.31 C 312.37 69.86 318.12 76.95 319.22 83.78 C 320.32 90.60 327.06 99.52 326.00 106.00 Z"/>
</g>
<g fill="#EA8285" fill-opacity="0.97" stroke="None">
<path d="
M 53.00 114.00 
C 60.43 119.69 69.06 111.42 78.02 111.02 C 86.99 110.63 96.55 103.04 106.00 107.00
C 102.56 95.90 93.40 87.17 88.00 77.00
C 81.12 77.00 59.31 73.71 56.33 81.33 C 53.35 88.95 53.58 105.49 53.00 114.00 Z"/>
</g>
<g fill="#C0576C" fill-opacity="0.99" stroke="None">
<path d="
M 53.00 114.00 
C 51.35 138.19 57.02 164.98 68.00 186.00
C 65.65 179.13 58.90 164.81 70.22 164.22 C 81.55 163.64 90.58 161.41 101.07 160.07 C 111.57 158.73 121.61 156.94 132.00 157.00 C 142.39 157.06 146.30 148.55 153.23 143.23 C 160.17 137.91 165.97 131.65 174.00 129.00
C 173.05 138.45 174.83 145.71 174.98 155.02 C 175.12 164.34 178.65 169.14 186.08 165.08 C 193.50 161.01 201.23 160.64 208.01 159.01 C 214.78 157.38 225.54 153.20 228.75 161.25 C 231.97 169.29 239.27 171.23 248.00 168.00
C 250.06 176.67 248.06 187.12 249.00 196.00 C 249.94 204.88 245.93 217.45 252.00 223.00
C 252.58 206.40 253.44 189.86 253.00 173.00
C 257.16 173.46 260.47 176.84 265.00 176.00
C 265.57 172.77 268.85 170.48 269.00 167.00
C 287.25 163.84 304.12 173.15 321.00 178.00
C 324.38 165.32 329.15 152.91 328.00 139.00
C 338.49 143.59 342.19 160.40 355.67 158.67 C 369.15 156.94 386.54 156.98 400.00 160.00 C 413.46 163.02 429.71 161.57 440.00 169.00
C 445.20 153.59 449.67 136.46 449.00 119.00
C 446.45 125.30 432.72 122.27 426.98 123.98 C 421.23 125.69 410.91 126.25 404.78 128.78 C 398.64 131.31 390.97 132.73 384.93 135.93 C 378.88 139.12 372.50 142.68 366.00 145.00
C 386.07 127.20 413.92 121.21 440.00 120.00
C 426.05 114.72 409.03 106.92 394.00 109.00
C 398.60 97.58 407.30 87.57 414.00 77.00
C 383.34 77.00 349.26 86.51 326.00 106.00
C 316.77 113.74 307.05 127.90 295.08 119.92 C 283.11 111.94 263.94 115.18 250.00 115.00 C 236.06 114.82 217.30 113.55 205.67 120.67 C 194.04 127.79 184.06 112.73 175.00 106.00
C 149.83 87.29 120.20 77.00 88.00 77.00
C 93.40 87.17 102.56 95.90 106.00 107.00
C 96.55 103.04 86.99 110.63 78.02 111.02 C 69.06 111.42 60.43 119.69 53.00 114.00
M 136.00 145.00 
C 111.45 131.94 84.62 123.29 57.00 121.00
C 84.85 119.24 114.59 126.77 136.00 145.00 Z"/>
</g>
<g fill="#EA8285" fill-opacity="0.98" stroke="None">
<path d="
M 449.00 119.00 
C 448.61 108.91 447.53 92.56 445.93 83.07 C 444.32 73.59 421.45 77.00 414.00 77.00
C 407.30 87.57 398.60 97.58 394.00 109.00
C 409.03 106.92 426.05 114.72 440.00 120.00
C 413.92 121.21 386.07 127.20 366.00 145.00
C 372.50 142.68 378.88 139.12 384.93 135.93 C 390.97 132.73 398.64 131.31 404.78 128.78 C 410.91 126.25 421.23 125.69 426.98 123.98 C 432.72 122.27 446.45 125.30 449.00 119.00 Z"/>
</g>
<g fill="#EA8285" fill-opacity="1.00" stroke="None">
<path d="
M 136.00 145.00 
C 114.59 126.77 84.85 119.24 57.00 121.00
C 84.62 123.29 111.45 131.94 136.00 145.00 Z"/>
</g>
<g fill="#712144" fill-opacity="1.00" stroke="None">
<path d="
M 68.00 186.00 
C 68.95 187.81 69.85 193.89 71.00 195.00
C 85.57 192.17 106.50 195.82 121.22 196.78 C 135.94 197.74 150.18 204.28 163.08 209.92 C 175.97 215.57 185.25 222.81 196.00 232.00
C 207.63 241.94 218.04 254.09 225.00 267.00
C 231.21 278.51 236.67 289.51 241.00 302.00
C 244.13 311.04 244.63 323.02 252.00 330.00
C 257.36 320.02 257.21 307.82 262.00 298.00
C 264.40 291.48 267.22 285.08 270.00 279.00
C 276.94 263.82 286.97 251.03 299.00 239.00
C 314.92 223.08 330.41 211.01 352.07 204.07 C 373.73 197.14 406.70 190.44 430.00 195.00
C 433.42 192.42 432.70 185.94 435.69 182.69 C 438.69 179.45 438.68 172.90 440.00 169.00
C 429.71 161.57 413.46 163.02 400.00 160.00 C 386.54 156.98 369.15 156.94 355.67 158.67 C 342.19 160.40 338.49 143.59 328.00 139.00
C 329.15 152.91 324.38 165.32 321.00 178.00
C 304.12 173.15 287.25 163.84 269.00 167.00
C 268.85 170.48 265.57 172.77 265.00 176.00
C 260.47 176.84 257.16 173.46 253.00 173.00
C 253.44 189.86 252.58 206.40 252.00 223.00
C 245.93 217.45 249.94 204.88 249.00 196.00 C 248.06 187.12 250.06 176.67 248.00 168.00
C 239.27 171.23 231.97 169.29 228.75 161.25 C 225.54 153.20 214.78 157.38 208.01 159.01 C 201.23 160.64 193.50 161.01 186.08 165.08 C 178.65 169.14 175.12 164.34 174.98 155.02 C 174.83 145.71 173.05 138.45 174.00 129.00
C 165.97 131.65 160.17 137.91 153.23 143.23 C 146.30 148.55 142.39 157.06 132.00 157.00 C 121.61 156.94 111.57 158.73 101.07 160.07 C 90.58 161.41 81.55 163.64 70.22 164.22 C 58.90 164.81 65.65 179.13 68.00 186.00 Z"/>
</g>
<g fill="#5DB7C9" fill-opacity="0.99" stroke="None">
<path d="
M 0.00 225.00 
L 0.00 231.00
C 9.17 264.80 29.60 294.88 56.00 317.00
C 56.05 311.84 66.89 308.08 70.75 304.75 C 74.60 301.41 83.27 298.58 88.69 295.69 C 94.12 292.81 102.51 290.86 109.01 289.01 C 115.50 287.16 124.85 285.39 132.00 285.00
C 139.16 283.84 147.91 283.85 155.00 285.00
C 180.89 286.40 200.91 304.07 221.00 316.00
C 214.66 310.59 208.70 304.98 202.00 300.00
C 172.08 277.75 138.68 261.25 103.00 252.00
C 89.71 248.55 75.46 246.29 62.00 245.00
C 74.16 243.71 86.42 242.69 99.00 243.00
C 103.72 232.09 118.94 234.71 129.00 232.00
C 131.03 237.69 134.68 242.86 138.00 248.00
C 140.56 253.23 142.94 256.70 147.00 261.00
C 148.91 262.09 151.75 262.74 154.00 263.00
C 149.06 255.76 144.92 248.22 140.00 241.00
C 161.17 237.53 184.74 238.04 205.00 242.00
C 202.62 238.20 198.32 235.76 196.00 232.00
C 185.25 222.81 175.97 215.57 163.08 209.92 C 150.18 204.28 135.94 197.74 121.22 196.78 C 106.50 195.82 85.57 192.17 71.00 195.00
C 58.95 197.34 43.97 202.35 32.23 207.23 C 20.49 212.11 10.57 218.03 0.00 225.00 Z"/>
</g>
<g fill="#5DB7C9" fill-opacity="0.99" stroke="None">
<path d="
M 299.00 239.00 
C 306.39 236.79 315.24 238.96 323.00 238.00 C 330.76 237.04 340.27 238.74 348.00 238.00 C 355.73 237.26 363.19 240.69 358.08 247.08 C 352.97 253.47 352.14 256.44 349.00 263.00
C 360.79 260.55 363.72 247.14 369.00 238.00
C 391.27 241.27 411.00 248.04 434.00 244.00
C 411.32 248.40 388.15 254.43 366.00 262.00
C 345.26 271.27 323.57 282.19 305.00 296.00
C 299.23 300.29 293.57 304.60 288.00 309.00
C 287.04 310.11 285.93 311.46 286.00 313.00
C 305.07 301.56 322.47 285.15 346.00 285.00
C 353.44 283.79 362.63 283.80 370.00 285.00
C 377.23 285.39 386.49 287.06 393.02 288.98 C 399.56 290.89 407.71 292.56 413.08 295.92 C 418.44 299.29 427.04 301.07 430.75 305.25 C 434.46 309.44 446.22 311.65 446.00 317.00
C 472.51 296.28 489.99 266.37 501.00 235.00
L 501.00 225.00
C 479.90 209.98 455.14 199.92 430.00 195.00
C 406.70 190.44 373.73 197.14 352.07 204.07 C 330.41 211.01 314.92 223.08 299.00 239.00
M 415.00 243.00 
C 412.24 245.16 407.51 243.45 404.00 244.00
C 406.76 241.84 411.49 243.55 415.00 243.00 Z"/>
</g>
<g fill="#000002" fill-opacity="0.00" stroke="None">
<path d="
M 0.00 512.00 
L 60.00 512.00
C 51.12 507.65 43.83 503.38 39.70 493.30 C 35.56 483.23 35.04 469.94 36.00 458.00 C 36.96 446.06 34.22 429.96 36.00 418.00 C 37.78 406.04 31.95 390.40 36.33 379.33 C 40.71 368.26 60.41 375.58 71.00 374.00 C 81.59 372.42 98.19 374.71 110.00 374.00 C 121.81 373.29 136.76 374.31 149.00 374.00 C 161.24 373.70 176.96 374.13 189.00 374.00 C 201.04 373.87 219.06 370.08 215.01 385.01 C 210.95 399.94 234.11 398.95 237.00 391.00
C 235.89 389.78 236.81 380.81 237.00 379.00
C 235.60 371.38 241.86 367.19 250.00 367.00 C 258.14 366.81 262.60 370.18 264.00 379.00
C 264.58 382.67 263.88 388.42 265.00 392.00
C 270.26 400.68 291.18 396.98 287.00 383.00 C 282.82 369.02 304.10 374.53 315.00 374.00 C 325.90 373.47 342.27 374.03 354.00 374.00 C 365.73 373.97 381.30 373.56 393.00 374.00 C 404.70 374.44 422.27 372.83 433.00 374.00 C 443.73 375.17 462.15 368.65 465.77 380.23 C 469.39 391.81 464.41 406.92 466.00 419.00 C 467.59 431.08 465.05 446.02 466.00 458.00 C 466.95 469.98 466.29 482.96 462.08 493.08 C 457.87 503.19 450.33 508.42 441.00 512.00
L 501.00 512.00
L 501.00 235.00
C 489.99 266.37 472.51 296.28 446.00 317.00
C 425.81 332.78 400.81 349.22 374.00 351.00
C 370.17 351.25 365.58 351.91 361.00 352.00
C 354.52 352.78 345.14 354.35 338.00 353.00
C 326.15 350.75 312.52 350.31 299.93 347.07 C 287.34 343.84 274.11 342.00 260.00 342.00
C 253.00 342.00 246.00 342.00 239.00 342.00
C 237.34 342.00 235.66 341.92 234.00 342.00
C 230.40 342.18 226.70 342.54 223.00 343.00
C 221.09 343.24 218.99 343.63 217.00 344.00
C 214.47 344.46 210.91 345.51 208.00 346.00
C 193.49 348.45 178.79 351.61 164.00 353.00
C 157.54 353.61 148.36 354.21 142.00 353.00
C 139.05 352.44 135.15 351.33 131.00 351.00
C 102.72 348.74 76.89 334.51 56.00 317.00
C 29.60 294.88 9.17 264.80 0.00 231.00
L 0.00 512.00 Z"/>
</g>
<g fill="#2F718C" fill-opacity="1.00" stroke="None">
<path d="
M 103.00 252.00 
C 114.21 252.49 126.48 248.22 138.00 248.00
C 134.68 242.86 131.03 237.69 129.00 232.00
C 118.94 234.71 103.72 232.09 99.00 243.00
C 86.42 242.69 74.16 243.71 62.00 245.00
C 75.46 246.29 89.71 248.55 103.00 252.00 Z"/>
</g>
<g fill="#2F718C" fill-opacity="1.00" stroke="None">
<path d="
M 147.00 261.00 
C 151.26 265.52 152.95 264.27 159.00 263.00 C 165.05 261.73 170.57 264.02 176.00 264.00 C 181.43 263.97 187.80 265.10 192.67 265.33 C 197.54 265.56 205.78 267.44 210.00 266.00 C 214.22 264.56 223.64 269.58 225.00 267.00
C 218.04 254.09 207.63 241.94 196.00 232.00
C 198.32 235.76 202.62 238.20 205.00 242.00
C 184.74 238.04 161.17 237.53 140.00 241.00
C 144.92 248.22 149.06 255.76 154.00 263.00
C 151.75 262.74 148.91 262.09 147.00 261.00 Z"/>
</g>
<g fill="#2F718C" fill-opacity="1.00" stroke="None">
<path d="
M 299.00 239.00 
C 286.97 251.03 276.94 263.82 270.00 279.00
C 272.74 283.47 285.07 277.90 290.07 278.07 C 295.08 278.25 305.06 276.87 310.67 275.67 C 316.28 274.47 324.01 274.12 329.68 271.68 C 335.34 269.24 343.42 271.66 348.69 267.69 C 353.97 263.73 359.57 262.96 366.00 262.00
C 388.15 254.43 411.32 248.40 434.00 244.00
C 411.00 248.04 391.27 241.27 369.00 238.00
C 363.72 247.14 360.79 260.55 349.00 263.00
C 352.14 256.44 352.97 253.47 358.08 247.08 C 363.19 240.69 355.73 237.26 348.00 238.00 C 340.27 238.74 330.76 237.04 323.00 238.00 C 315.24 238.96 306.39 236.79 299.00 239.00 Z"/>
</g>
<g fill="#2F718C" fill-opacity="1.00" stroke="None">
<path d="
M 415.00 243.00 
C 411.49 243.55 406.76 241.84 404.00 244.00
C 407.51 243.45 412.24 245.16 415.00 243.00 Z"/>
</g>
<g fill="#204D67" fill-opacity="1.00" stroke="None">
<path d="
M 103.00 252.00 
C 138.68 261.25 172.08 277.75 202.00 300.00
C 205.53 301.07 216.15 302.69 221.00 302.00 C 225.85 301.31 239.63 305.89 241.00 302.00
C 236.67 289.51 231.21 278.51 225.00 267.00
C 223.64 269.58 214.22 264.56 210.00 266.00 C 205.78 267.44 197.54 265.56 192.67 265.33 C 187.80 265.10 181.43 263.97 176.00 264.00 C 170.57 264.02 165.05 261.73 159.00 263.00 C 152.95 264.27 151.26 265.52 147.00 261.00
C 142.94 256.70 140.56 253.23 138.00 248.00
C 126.48 248.22 114.21 252.49 103.00 252.00 Z"/>
</g>
<g fill="#204D67" fill-opacity="1.00" stroke="None">
<path d="
M 270.00 279.00 
C 267.22 285.08 264.40 291.48 262.00 298.00
C 263.37 301.67 277.86 299.40 283.00 298.00 C 288.14 296.60 300.21 296.72 305.00 296.00
C 323.57 282.19 345.26 271.27 366.00 262.00
C 359.57 262.96 353.97 263.73 348.69 267.69 C 343.42 271.66 335.34 269.24 329.68 271.68 C 324.01 274.12 316.28 274.47 310.67 275.67 C 305.06 276.87 295.08 278.25 290.07 278.07 C 285.07 277.90 272.74 283.47 270.00 279.00 Z"/>
</g>
<g fill="#2F718C" fill-opacity="1.00" stroke="None">
<path d="
M 132.00 285.00 
C 139.51 284.59 147.49 284.59 155.00 285.00
C 147.91 283.85 139.16 283.84 132.00 285.00 Z"/>
</g>
<g fill="#2F718C" fill-opacity="1.00" stroke="None">
<path d="
M 346.00 285.00 
C 353.84 284.57 362.16 284.57 370.00 285.00
C 362.63 283.80 353.44 283.79 346.00 285.00 Z"/>
</g>
<g fill="#204D67" fill-opacity="0.99" stroke="None">
<path d="
M 56.00 317.00 
C 76.89 334.51 102.72 348.74 131.00 351.00
C 129.55 350.70 126.27 349.94 125.00 349.00
C 140.98 341.97 159.22 338.54 177.00 335.00 C 194.78 331.46 213.52 321.80 232.00 327.00
C 229.32 322.31 224.36 319.23 221.00 316.00
C 200.91 304.07 180.89 286.40 155.00 285.00
C 147.49 284.59 139.51 284.59 132.00 285.00
C 124.85 285.39 115.50 287.16 109.01 289.01 C 102.51 290.86 94.12 292.81 88.69 295.69 C 83.27 298.58 74.60 301.41 70.75 304.75 C 66.89 308.08 56.05 311.84 56.00 317.00 Z"/>
</g>
<g fill="#204D67" fill-opacity="0.99" stroke="None">
<path d="
M 288.00 309.00 
C 284.03 312.14 279.56 316.38 277.00 320.00
C 296.95 313.40 319.54 321.50 340.07 325.93 C 360.61 330.36 382.33 333.55 402.00 341.00
C 394.48 347.25 381.38 346.29 374.00 351.00
C 400.81 349.22 425.81 332.78 446.00 317.00
C 446.22 311.65 434.46 309.44 430.75 305.25 C 427.04 301.07 418.44 299.29 413.08 295.92 C 407.71 292.56 399.56 290.89 393.02 288.98 C 386.49 287.06 377.23 285.39 370.00 285.00
C 362.16 284.57 353.84 284.57 346.00 285.00
C 322.47 285.15 305.07 301.56 286.00 313.00
C 285.93 311.46 287.04 310.11 288.00 309.00 Z"/>
</g>
<g fill="#0E2941" fill-opacity="0.99" stroke="None">
<path d="
M 262.00 298.00 
C 257.21 307.82 257.36 320.02 252.00 330.00
C 244.63 323.02 244.13 311.04 241.00 302.00
C 239.63 305.89 225.85 301.31 221.00 302.00 C 216.15 302.69 205.53 301.07 202.00 300.00
C 208.70 304.98 214.66 310.59 221.00 316.00
C 224.36 319.23 229.32 322.31 232.00 327.00
C 213.52 321.80 194.78 331.46 177.00 335.00 C 159.22 338.54 140.98 341.97 125.00 349.00
C 126.27 349.94 129.55 350.70 131.00 351.00
C 135.15 351.33 139.05 352.44 142.00 353.00
C 147.67 353.45 158.24 352.98 164.00 353.00
C 178.79 351.61 193.49 348.45 208.00 346.00
C 211.36 345.02 213.53 344.19 217.00 344.00
C 218.99 343.63 221.09 343.24 223.00 343.00
C 226.92 342.04 230.28 341.67 234.00 342.00
C 235.66 341.92 237.34 342.00 239.00 342.00
C 242.02 341.36 245.02 339.74 249.02 339.02 C 253.02 338.31 257.14 341.42 260.00 342.00
C 274.11 342.00 287.34 343.84 299.93 347.07 C 312.52 350.31 326.15 350.75 338.00 353.00
C 344.16 353.58 353.97 352.14 361.00 352.00
C 365.58 351.91 370.17 351.25 374.00 351.00
C 381.38 346.29 394.48 347.25 402.00 341.00
C 382.33 333.55 360.61 330.36 340.07 325.93 C 319.54 321.50 296.95 313.40 277.00 320.00
C 279.56 316.38 284.03 312.14 288.00 309.00
C 293.57 304.60 299.23 300.29 305.00 296.00
C 300.21 296.72 288.14 296.60 283.00 298.00 C 277.86 299.40 263.37 301.67 262.00 298.00 Z"/>
</g>
<g fill="#2F718C" fill-opacity="0.45" stroke="None">
<path d="
M 239.00 342.00 
C 246.00 342.00 253.00 342.00 260.00 342.00
C 257.14 341.42 253.02 338.31 249.02 339.02 C 245.02 339.74 242.02 341.36 239.00 342.00 Z"/>
</g>
<g fill="#204D67" fill-opacity="0.56" stroke="None">
<path d="
M 223.00 343.00 
C 226.70 342.54 230.40 342.18 234.00 342.00
C 230.28 341.67 226.92 342.04 223.00 343.00 Z"/>
</g>
<g fill="#204D67" fill-opacity="0.47" stroke="None">
<path d="
M 208.00 346.00 
C 210.91 345.51 214.47 344.46 217.00 344.00
C 213.53 344.19 211.36 345.02 208.00 346.00 Z"/>
</g>
<g fill="#204D67" fill-opacity="0.01" stroke="None">
<path d="
M 142.00 353.00 
C 148.36 354.21 157.54 353.61 164.00 353.00
C 158.24 352.98 147.67 353.45 142.00 353.00 Z"/>
</g>
<g fill="#204D67" fill-opacity="0.01" stroke="None">
<path d="
M 338.00 353.00 
C 345.14 354.35 354.52 352.78 361.00 352.00
C 353.97 352.14 344.16 353.58 338.00 353.00 Z"/>
</g>
<g fill="#0E2941" fill-opacity="0.99" stroke="None">
<path d="
M 237.00 379.00 
C 237.04 379.22 237.78 379.70 238.00 380.00
C 239.87 382.53 239.02 386.50 238.00 389.00
C 237.83 390.37 237.32 390.12 237.00 391.00
C 234.11 398.95 210.95 399.94 215.01 385.01 C 219.06 370.08 201.04 373.87 189.00 374.00 C 176.96 374.13 161.24 373.70 149.00 374.00 C 136.76 374.31 121.81 373.29 110.00 374.00 C 98.19 374.71 81.59 372.42 71.00 374.00 C 60.41 375.58 40.71 368.26 36.33 379.33 C 31.95 390.40 37.78 406.04 36.00 418.00 C 34.22 429.96 36.96 446.06 36.00 458.00 C 35.04 469.94 35.56 483.23 39.70 493.30 C 43.83 503.38 51.12 507.65 60.00 512.00
L 441.00 512.00
C 450.33 508.42 457.87 503.19 462.08 493.08 C 466.29 482.96 466.95 469.98 466.00 458.00 C 465.05 446.02 467.59 431.08 466.00 419.00 C 464.41 406.92 469.39 391.81 465.77 380.23 C 462.15 368.65 443.73 375.17 433.00 374.00 C 422.27 372.83 404.70 374.44 393.00 374.00 C 381.30 373.56 365.73 373.97 354.00 374.00 C 342.27 374.03 325.90 373.47 315.00 374.00 C 304.10 374.53 282.82 369.02 287.00 383.00 C 291.18 396.98 270.26 400.68 265.00 392.00
C 262.36 387.65 263.82 383.33 264.00 379.00
C 262.60 370.18 258.14 366.81 250.00 367.00 C 241.86 367.19 235.60 371.38 237.00 379.00
M 280.00 410.00 
C 281.53 413.02 281.00 417.29 281.00 421.00
C 281.00 434.39 291.28 448.35 285.23 461.23 C 279.18 474.11 272.12 483.18 257.00 484.00
C 251.69 485.44 250.22 485.29 245.00 484.00
C 236.02 483.66 227.41 479.71 221.75 472.25 C 216.10 464.78 212.72 454.80 214.98 444.98 C 217.23 435.15 222.78 426.65 221.00 415.00 C 219.22 403.35 239.87 404.68 248.00 406.00 C 256.13 407.32 275.62 401.34 280.00 410.00 Z"/>
</g>
<g fill="#2F718C" fill-opacity="0.78" stroke="None">
<path d="
M 237.00 391.00 
C 237.32 390.12 237.83 390.37 238.00 389.00
C 238.33 386.33 238.38 382.66 238.00 380.00
C 237.78 379.70 237.04 379.22 237.00 379.00
C 236.81 380.81 235.89 389.78 237.00 391.00 Z"/>
</g>
<g fill="#2F718C" fill-opacity="0.75" stroke="None">
<path d="
M 265.00 392.00 
C 263.88 388.42 264.58 382.67 264.00 379.00
C 263.82 383.33 262.36 387.65 265.00 392.00 Z"/>
</g>
<g fill="#204D67" fill-opacity="1.00" stroke="None">
<path d="
M 238.00 389.00 
C 239.02 386.50 239.87 382.53 238.00 380.00
C 238.38 382.66 238.33 386.33 238.00 389.00 Z"/>
</g>
<g fill="#000002" fill-opacity="0.00" stroke="None">
<path d="
M 245.00 484.00 
C 248.94 484.15 253.06 484.21 257.00 484.00
C 272.12 483.18 279.18 474.11 285.23 461.23 C 291.28 448.35 281.00 434.39 281.00 421.00
C 280.78 418.73 280.84 412.57 280.00 410.00
C 275.62 401.34 256.13 407.32 248.00 406.00 C 239.87 404.68 219.22 403.35 221.00 415.00 C 222.78 426.65 217.23 435.15 214.98 444.98 C 212.72 454.80 216.10 464.78 221.75 472.25 C 227.41 479.71 236.02 483.66 245.00 484.00
M 258.00 463.00 
C 254.45 464.76 243.54 463.25 242.00 461.00
C 239.04 456.69 239.46 448.69 239.00 443.00 C 238.54 437.31 249.08 434.60 253.00 435.00 C 256.92 435.40 265.38 441.41 263.00 446.00 C 260.62 450.59 262.47 460.79 258.00 463.00 Z"/>
</g>
<g fill="#204D67" fill-opacity="0.01" stroke="None">
<path d="
M 281.00 421.00 
C 281.00 417.29 281.53 413.02 280.00 410.00
C 280.84 412.57 280.78 418.73 281.00 421.00 Z"/>
</g>
<g fill="#0E2941" fill-opacity="0.93" stroke="None">
<path d="
M 242.00 461.00 
C 246.19 459.76 254.76 464.35 258.00 463.00
C 262.47 460.79 260.62 450.59 263.00 446.00 C 265.38 441.41 256.92 435.40 253.00 435.00 C 249.08 434.60 238.54 437.31 239.00 443.00 C 239.46 448.69 239.04 456.69 242.00 461.00 Z"/>
</g>
<g fill="#204D67" fill-opacity="0.49" stroke="None">
<path d="
M 258.00 463.00 
C 254.76 464.35 246.19 459.76 242.00 461.00
C 243.54 463.25 254.45 464.76 258.00 463.00 Z"/>
</g>
<g fill="#2F718C" fill-opacity="0.45" stroke="None">
<path d="
M 257.00 484.00 
C 253.06 484.21 248.94 484.15 245.00 484.00
C 250.22 485.29 251.69 485.44 257.00 484.00 Z"/>
</g>
</svg>